<svg width="18" height="18" viewBox="0 0 18 18" fill="none" xmlns="http://www.w3.org/2000/svg">
<path fill-rule="evenodd" clip-rule="evenodd" d="M2.8823 2.64707C2.8823 2.08543 3.1054 1.5468 3.50254 1.14966C3.89968 0.752528 4.43831 0.529419 4.99994 0.529419L13.4705 0.529419C14.0322 0.529419 14.5708 0.752528 14.9679 1.14966C15.3651 1.5468 15.5882 2.08543 15.5882 2.64707V3.84671L16.5845 4.37824C16.9233 4.55886 17.2065 4.82816 17.404 5.15733C17.6016 5.48651 17.7059 5.86318 17.7058 6.24707V15.3529C17.7058 15.9146 17.4827 16.4532 17.0856 16.8504C16.6884 17.2475 16.1498 17.4706 15.5882 17.4706H2.8823C2.32066 17.4706 1.78203 17.2475 1.38489 16.8504C0.987757 16.4532 0.764648 15.9146 0.764648 15.3529V6.24707C0.76461 5.86318 0.868922 5.48651 1.06643 5.15733C1.26393 4.82816 1.5472 4.55886 1.88594 4.37824L2.8823 3.84671V2.64707ZM2.8823 5.04742L2.38465 5.31213C2.2151 5.40241 2.07331 5.53711 1.97445 5.7018C1.8756 5.8665 1.82341 6.05498 1.82347 6.24707V7.11213L2.8823 7.74742V5.04742V5.04742ZM3.94112 8.38271L7.91171 10.7651L9.23524 9.97095L10.5588 10.7651L14.5294 8.38271V2.64707C14.5294 2.36625 14.4178 2.09693 14.2192 1.89836C14.0207 1.6998 13.7513 1.58824 13.4705 1.58824H4.99994C4.71913 1.58824 4.44981 1.6998 4.25124 1.89836C4.05267 2.09693 3.94112 2.36625 3.94112 2.64707V8.38271ZM15.5882 7.74742L16.647 7.11213V6.24707C16.6469 6.05516 16.5946 5.8669 16.4957 5.70241C16.3969 5.53791 16.2552 5.40338 16.0858 5.31318L15.5882 5.04742V7.74742ZM9.23524 3.68683C10.9971 1.91542 15.4029 5.0146 9.23524 9.00001C3.06759 5.0146 7.47335 1.91648 9.23524 3.68683ZM16.647 8.34671L11.5879 11.3824L16.647 14.418V8.34671ZM16.6099 15.6314L9.23524 11.2045L1.86053 15.6304C1.92144 15.8547 2.05449 16.0528 2.23915 16.194C2.42381 16.3352 2.64982 16.4118 2.8823 16.4118H15.5882C15.8207 16.4118 16.0467 16.3352 16.2313 16.194C16.416 16.0528 16.549 15.8547 16.6099 15.6304V15.6314ZM1.82347 14.4169L6.88253 11.3813L1.82347 8.34671V14.418V14.4169Z" fill="#4C2F30"/>
</svg>
