<svg width="30" height="44" viewBox="0 0 30 44" fill="none" xmlns="http://www.w3.org/2000/svg">
<path d="M28.5851 9.00004C30.7734 13.7017 30.2751 19.2484 27.8701 23.755C25.8334 27.4167 22.9084 30.515 20.4167 33.9167C19.3334 35.4334 18.2501 37.0584 17.4484 38.8134C17.1667 39.3984 16.9717 40.005 16.7551 40.6117C16.5384 41.2184 16.3434 41.825 16.1484 42.4317C15.9534 42.995 15.7151 43.6667 15.0001 43.6667C14.1551 43.6667 13.9167 42.7134 13.7434 42.0634C13.2234 40.4817 12.7034 38.965 11.9017 37.5134C10.9917 35.8017 9.8434 34.22 8.6734 32.6817L28.5851 9.00004ZM8.76007 14.2434L1.61007 22.7367C2.93174 25.5317 4.9034 27.915 6.7884 30.2984C7.2434 30.84 7.6984 31.4034 8.13174 31.9884L17.1667 21.285L17.0801 21.3067C13.9167 22.39 10.4067 20.7867 9.15007 17.6667C8.97674 17.2984 8.84674 16.865 8.76007 16.4317C8.64087 15.7144 8.64087 14.9823 8.76007 14.265V14.2434M3.25674 6.01004L3.23507 6.03171C-0.274931 10.4734 -0.881598 16.6484 1.22007 21.87L9.86507 11.6L9.75674 11.4917L3.25674 6.01004M19.8101 1.11337L12.8334 9.36837L12.9201 9.34671C15.8234 8.35004 19.0734 9.60671 20.5467 12.25C20.8717 12.8567 21.1317 13.5067 21.2184 14.1567C21.3484 14.98 21.3917 15.565 21.2401 16.3667V16.3884L28.1734 8.15504C26.361 4.86038 23.3875 2.35801 19.8317 1.13504L19.8101 1.11337M10.4284 10.9284L18.9001 0.853374L18.8134 0.831707C17.5567 0.506707 16.2784 0.333374 15.0001 0.333374C10.7317 0.333374 6.70174 2.17504 3.84174 5.33837L3.7984 5.36004L10.4284 10.9284V10.9284Z" fill="#4C2F30"/>
</svg>
