<svg width="44" height="44" viewBox="0 0 44 44" fill="none" xmlns="http://www.w3.org/2000/svg">
<path d="M21.9999 0.333374C27.7463 0.333374 33.2573 2.61611 37.3206 6.67939C41.3839 10.7427 43.6666 16.2537 43.6666 22C43.6666 27.7464 41.3839 33.2574 37.3206 37.3207C33.2573 41.384 27.7463 43.6667 21.9999 43.6667C16.2536 43.6667 10.7426 41.384 6.67927 37.3207C2.61598 33.2574 0.333252 27.7464 0.333252 22C0.333252 16.2537 2.61598 10.7427 6.67927 6.67939C10.7426 2.61611 16.2536 0.333374 21.9999 0.333374V0.333374ZM21.9999 4.66671C17.4028 4.66671 12.994 6.49289 9.7434 9.74352C6.49277 12.9942 4.66658 17.403 4.66658 22C4.66658 26.5971 6.49277 31.0059 9.7434 34.2566C12.994 37.5072 17.4028 39.3334 21.9999 39.3334C26.597 39.3334 31.0058 37.5072 34.2564 34.2566C37.5071 31.0059 39.3332 26.5971 39.3332 22C39.3332 17.403 37.5071 12.9942 34.2564 9.74352C31.0058 6.49289 26.597 4.66671 21.9999 4.66671V4.66671ZM19.8333 11.1667C20.3404 11.1665 20.8315 11.3442 21.221 11.6689C21.6106 11.9935 21.874 12.4445 21.9653 12.9434L21.9999 13.3334V22H28.4999C29.0413 21.999 29.5635 22.2008 29.9636 22.5656C30.3638 22.9304 30.6128 23.4317 30.6617 23.9709C30.7106 24.5102 30.5559 25.0481 30.228 25.479C29.9 25.9098 29.4227 26.2022 28.8899 26.2987L28.4999 26.3334H19.8333C19.3261 26.3335 18.835 26.1558 18.4455 25.8312C18.0559 25.5065 17.7925 25.0555 17.7013 24.5567L17.6666 24.1667V13.3334C17.6666 12.7587 17.8949 12.2076 18.3012 11.8013C18.7075 11.395 19.2586 11.1667 19.8333 11.1667V11.1667Z" fill="#4C2F30"/>
</svg>
