<svg width="40" height="44" viewBox="0 0 40 44" fill="none" xmlns="http://www.w3.org/2000/svg">
<path d="M9.16675 19.8334H13.5001V24.1667H9.16675V19.8334ZM9.16675 28.5H13.5001V32.8334H9.16675V28.5ZM17.8334 19.8334H22.1667V24.1667H17.8334V19.8334ZM17.8334 28.5H22.1667V32.8334H17.8334V28.5ZM26.5001 19.8334H30.8334V24.1667H26.5001V19.8334ZM26.5001 28.5H30.8334V32.8334H26.5001V28.5Z" fill="#4C2F30"/>
<path d="M4.83333 43.6667H35.1667C37.5565 43.6667 39.5 41.7232 39.5 39.3334V9.00004C39.5 6.61021 37.5565 4.66671 35.1667 4.66671H30.8333V0.333374H26.5V4.66671H13.5V0.333374H9.16667V4.66671H4.83333C2.4435 4.66671 0.5 6.61021 0.5 9.00004V39.3334C0.5 41.7232 2.4435 43.6667 4.83333 43.6667ZM35.1667 13.3334L35.1688 39.3334H4.83333V13.3334H35.1667Z" fill="#4C2F30"/>
</svg>
